<svg width="70" height="70" viewBox="0 0 70 70" fill="none" xmlns="http://www.w3.org/2000/svg">
<path d="M52.5 14.5833H55.4166V17.4999C55.4166 18.2735 55.7239 19.0153 56.2709 19.5623C56.8179 20.1093 57.5598 20.4166 58.3333 20.4166C59.1069 20.4166 59.8487 20.1093 60.3957 19.5623C60.9427 19.0153 61.25 18.2735 61.25 17.4999V14.5833H64.1666C64.9402 14.5833 65.6821 14.276 66.229 13.729C66.776 13.182 67.0833 12.4401 67.0833 11.6666C67.0833 10.893 66.776 10.1512 66.229 9.6042C65.6821 9.05721 64.9402 8.74992 64.1666 8.74992H61.25V5.83326C61.25 5.05971 60.9427 4.31784 60.3957 3.77086C59.8487 3.22388 59.1069 2.91659 58.3333 2.91659C57.5598 2.91659 56.8179 3.22388 56.2709 3.77086C55.7239 4.31784 55.4166 5.05971 55.4166 5.83326V8.74992H52.5C51.7264 8.74992 50.9846 9.05721 50.4376 9.6042C49.8906 10.1512 49.5833 10.893 49.5833 11.6666C49.5833 12.4401 49.8906 13.182 50.4376 13.729C50.9846 14.276 51.7264 14.5833 52.5 14.5833ZM20.4166 20.4166V49.5833C20.4166 50.3568 20.7239 51.0987 21.2709 51.6457C21.8179 52.1926 22.5598 52.4999 23.3333 52.4999C24.1069 52.4999 24.8487 52.1926 25.3957 51.6457C25.9427 51.0987 26.25 50.3568 26.25 49.5833V20.4166C26.25 19.643 25.9427 18.9012 25.3957 18.3542C24.8487 17.8072 24.1069 17.4999 23.3333 17.4999C22.5598 17.4999 21.8179 17.8072 21.2709 18.3542C20.7239 18.9012 20.4166 19.643 20.4166 20.4166ZM63 26.2499C62.6246 26.3265 62.2679 26.4762 61.9504 26.6906C61.6329 26.905 61.3607 27.1798 61.1495 27.4995C60.9382 27.8191 60.792 28.1772 60.7191 28.5533C60.6463 28.9294 60.6483 29.3162 60.725 29.6916C61.8638 35.2222 61.1888 40.9726 58.8003 46.0892C56.4118 51.2058 52.4371 55.4158 47.4662 58.0943C42.4953 60.7728 36.7932 61.777 31.2063 60.9579C25.6194 60.1387 20.4456 57.5399 16.4528 53.5471C12.46 49.5543 9.86118 44.3805 9.04203 38.7936C8.22288 33.2067 9.22709 27.5046 11.9056 22.5337C14.5841 17.5628 18.7941 13.5881 23.9107 11.1996C29.0273 8.81109 34.7777 8.13614 40.3083 9.27492C41.0819 9.42963 41.8852 9.27072 42.5416 8.83313C43.1979 8.39555 43.6536 7.71514 43.8083 6.94159C43.963 6.16804 43.8041 5.36472 43.3665 4.70834C42.9289 4.05196 42.2485 3.5963 41.475 3.44159C39.3405 3.04391 37.1706 2.86797 35 2.91659C28.6545 2.91659 22.4515 4.79824 17.1754 8.32361C11.8994 11.849 7.78715 16.8597 5.35884 22.7222C2.93053 28.5846 2.29517 35.0355 3.53311 41.2591C4.77106 47.4826 7.8267 53.1993 12.3136 57.6863C16.8006 62.1732 22.5173 65.2288 28.7408 66.4668C34.9644 67.7047 41.4153 67.0694 47.2777 64.6411C53.1402 62.2127 58.1509 58.1005 61.6763 52.8245C65.2017 47.5484 67.0833 41.3454 67.0833 34.9999C67.0895 32.8447 66.8745 30.6946 66.4416 28.5833C66.3718 28.2026 66.2269 27.8397 66.0153 27.5156C65.8038 27.1915 65.5299 26.9128 65.2096 26.6956C64.8893 26.4785 64.5289 26.3272 64.1496 26.2507C63.7702 26.1742 63.3794 26.1739 63 26.2499ZM32.0833 26.2499V29.1666C32.0962 31.3251 32.9064 33.4026 34.3583 34.9999C32.9064 36.5972 32.0962 38.6748 32.0833 40.8333V43.7499C32.0833 46.0706 33.0052 48.2962 34.6461 49.9371C36.2871 51.578 38.5127 52.4999 40.8333 52.4999H43.75C46.0706 52.4999 48.2962 51.578 49.9372 49.9371C51.5781 48.2962 52.5 46.0706 52.5 43.7499V40.8333C52.4871 38.6748 51.6769 36.5972 50.225 34.9999C51.6769 33.4026 52.4871 31.3251 52.5 29.1666V26.2499C52.5 23.9293 51.5781 21.7037 49.9372 20.0627C48.2962 18.4218 46.0706 17.4999 43.75 17.4999H40.8333C38.5127 17.4999 36.2871 18.4218 34.6461 20.0627C33.0052 21.7037 32.0833 23.9293 32.0833 26.2499ZM46.6666 43.7499C46.6666 44.5235 46.3593 45.2653 45.8124 45.8123C45.2654 46.3593 44.5235 46.6666 43.75 46.6666H40.8333C40.0598 46.6666 39.3179 46.3593 38.7709 45.8123C38.2239 45.2653 37.9166 44.5235 37.9166 43.7499V40.8333C37.9166 40.0597 38.2239 39.3178 38.7709 38.7709C39.3179 38.2239 40.0598 37.9166 40.8333 37.9166H43.75C44.5235 37.9166 45.2654 38.2239 45.8124 38.7709C46.3593 39.3178 46.6666 40.0597 46.6666 40.8333V43.7499ZM46.6666 26.2499V29.1666C46.6666 29.9401 46.3593 30.682 45.8124 31.229C45.2654 31.776 44.5235 32.0833 43.75 32.0833H40.8333C40.0598 32.0833 39.3179 31.776 38.7709 31.229C38.2239 30.682 37.9166 29.9401 37.9166 29.1666V26.2499C37.9166 25.4764 38.2239 24.7345 38.7709 24.1875C39.3179 23.6405 40.0598 23.3333 40.8333 23.3333H43.75C44.5235 23.3333 45.2654 23.6405 45.8124 24.1875C46.3593 24.7345 46.6666 25.4764 46.6666 26.2499Z" fill="#FF0000"/>
</svg>
