<svg width="16" height="21" viewBox="0 0 16 21" fill="none" xmlns="http://www.w3.org/2000/svg">
<path d="M14.1367 2.67984C13.3238 1.83259 12.348 1.15845 11.2679 0.697921C10.1878 0.237396 9.02582 0 7.85167 0C6.67753 0 5.5155 0.237396 4.43543 0.697921C3.35537 1.15845 2.37957 1.83259 1.56667 2.67984C0.0366733 4.67984 -0.433327 7.67984 0.426673 10.7598C1.30667 14.0898 3.65667 16.4998 5.54667 18.4298L6.46667 19.4298C6.64536 19.6194 6.85937 19.7723 7.09667 19.8798C7.33438 19.9854 7.59158 20.04 7.85167 20.04C8.11177 20.04 8.36897 19.9854 8.60667 19.8798C8.83957 19.7742 9.05004 19.6248 9.22667 19.4398L10.1567 18.4398C12.0467 16.5098 14.3967 14.0998 15.2767 10.7698C16.0867 7.67984 15.6667 4.67984 14.1367 2.67984ZM7.84667 10.9298C7.10014 10.93 6.37333 10.6901 5.77359 10.2456C5.17384 9.80102 4.73295 9.17539 4.51602 8.46107C4.29909 7.74674 4.31762 6.98159 4.56887 6.27861C4.82012 5.57562 5.29078 4.97207 5.91135 4.55707C6.53191 4.14208 7.26947 3.93764 8.01513 3.97396C8.76078 4.01027 9.47499 4.2854 10.0523 4.75873C10.6296 5.23206 11.0394 5.8785 11.2211 6.60257C11.4029 7.32664 11.347 8.08997 11.0617 8.77984C10.798 9.41487 10.3517 9.95728 9.77929 10.3383C9.20691 10.7193 8.53426 10.9217 7.84667 10.9198V10.9298Z" fill="#FF0000"/>
</svg>
